<mxfile host="app.diagrams.net" modified="2023-10-18T20:13:39.311Z" agent="Mozilla/5.0 (Windows NT 10.0; Win64; x64) AppleWebKit/537.36 (KHTML, like Gecko) Chrome/117.0.0.0 Safari/537.36 Edg/117.0.2045.60" etag="0ChGHWEu3X57PXNHwuaA" version="22.0.4" type="github">
  <diagram name="Page-1" id="_L0Ep58sSLtaiLvCrgYz">
    <mxGraphModel dx="1066" dy="571" grid="1" gridSize="10" guides="1" tooltips="1" connect="1" arrows="1" fold="1" page="1" pageScale="1" pageWidth="850" pageHeight="1100" math="0" shadow="0">
      <root>
        <mxCell id="0" />
        <mxCell id="1" parent="0" />
        <mxCell id="tGqfKUbqPckBpceEdP5W-1" value="" style="shape=cylinder3;whiteSpace=wrap;html=1;boundedLbl=1;backgroundOutline=1;size=15;fillColor=#e1d5e7;strokeColor=#9673a6;" vertex="1" parent="1">
          <mxGeometry x="285" y="310" width="110" height="120" as="geometry" />
        </mxCell>
        <mxCell id="tGqfKUbqPckBpceEdP5W-2" value="&lt;b&gt;Engagement&lt;/b&gt;" style="rounded=0;whiteSpace=wrap;html=1;fillColor=#fff2cc;strokeColor=#d6b656;" vertex="1" parent="1">
          <mxGeometry x="80" y="120" width="120" height="60" as="geometry" />
        </mxCell>
        <mxCell id="tGqfKUbqPckBpceEdP5W-3" value="&lt;b&gt;Account&lt;/b&gt;" style="rounded=0;whiteSpace=wrap;html=1;fillColor=#fff2cc;strokeColor=#d6b656;" vertex="1" parent="1">
          <mxGeometry x="280" y="120" width="120" height="60" as="geometry" />
        </mxCell>
        <mxCell id="tGqfKUbqPckBpceEdP5W-4" value="&lt;b&gt;Core_Company&lt;/b&gt;" style="rounded=0;whiteSpace=wrap;html=1;fillColor=#fff2cc;strokeColor=#d6b656;" vertex="1" parent="1">
          <mxGeometry x="470" y="120" width="120" height="60" as="geometry" />
        </mxCell>
        <mxCell id="tGqfKUbqPckBpceEdP5W-5" value="" style="curved=1;endArrow=classic;html=1;rounded=0;entryX=0.5;entryY=1;entryDx=0;entryDy=0;exitX=0.227;exitY=0.217;exitDx=0;exitDy=0;exitPerimeter=0;" edge="1" parent="1" source="tGqfKUbqPckBpceEdP5W-1" target="tGqfKUbqPckBpceEdP5W-3">
          <mxGeometry width="50" height="50" relative="1" as="geometry">
            <mxPoint x="400" y="320" as="sourcePoint" />
            <mxPoint x="450" y="270" as="targetPoint" />
            <Array as="points">
              <mxPoint x="450" y="320" />
              <mxPoint x="400" y="270" />
            </Array>
          </mxGeometry>
        </mxCell>
        <mxCell id="tGqfKUbqPckBpceEdP5W-7" value="" style="curved=1;endArrow=classic;html=1;rounded=0;entryX=0.75;entryY=1;entryDx=0;entryDy=0;exitX=0.318;exitY=0.167;exitDx=0;exitDy=0;exitPerimeter=0;" edge="1" parent="1" source="tGqfKUbqPckBpceEdP5W-1" target="tGqfKUbqPckBpceEdP5W-2">
          <mxGeometry width="50" height="50" relative="1" as="geometry">
            <mxPoint x="400" y="330" as="sourcePoint" />
            <mxPoint x="140" y="190" as="targetPoint" />
            <Array as="points">
              <mxPoint x="450" y="330" />
              <mxPoint x="340" y="290" />
              <mxPoint x="400" y="280" />
            </Array>
          </mxGeometry>
        </mxCell>
        <mxCell id="tGqfKUbqPckBpceEdP5W-8" value="" style="curved=1;endArrow=classic;html=1;rounded=0;entryX=0.5;entryY=1;entryDx=0;entryDy=0;" edge="1" parent="1" target="tGqfKUbqPckBpceEdP5W-4">
          <mxGeometry width="50" height="50" relative="1" as="geometry">
            <mxPoint x="400" y="320" as="sourcePoint" />
            <mxPoint x="450" y="270" as="targetPoint" />
            <Array as="points">
              <mxPoint x="450" y="320" />
              <mxPoint x="400" y="270" />
            </Array>
          </mxGeometry>
        </mxCell>
        <mxCell id="tGqfKUbqPckBpceEdP5W-9" value="&lt;b&gt;Critical infrastructure&lt;/b&gt;" style="text;html=1;strokeColor=none;fillColor=none;align=center;verticalAlign=middle;whiteSpace=wrap;rounded=0;" vertex="1" parent="1">
          <mxGeometry x="80" y="70" width="130" height="30" as="geometry" />
        </mxCell>
        <mxCell id="tGqfKUbqPckBpceEdP5W-10" value="&lt;b&gt;&lt;font color=&quot;#ff0000&quot;&gt;Critical Sub&lt;/font&gt;&lt;/b&gt;" style="text;html=1;strokeColor=none;fillColor=none;align=center;verticalAlign=middle;whiteSpace=wrap;rounded=0;" vertex="1" parent="1">
          <mxGeometry x="260" y="95" width="140" height="30" as="geometry" />
        </mxCell>
        <mxCell id="tGqfKUbqPckBpceEdP5W-11" value="Actor" style="shape=umlActor;verticalLabelPosition=bottom;verticalAlign=top;html=1;outlineConnect=0;fillColor=#60a917;fontColor=#ffffff;strokeColor=#2D7600;" vertex="1" parent="1">
          <mxGeometry x="760" y="35" width="30" height="60" as="geometry" />
        </mxCell>
        <mxCell id="tGqfKUbqPckBpceEdP5W-12" value="Actor" style="shape=umlActor;verticalLabelPosition=bottom;verticalAlign=top;html=1;outlineConnect=0;fillColor=#a20025;fontColor=#ffffff;strokeColor=#6F0000;" vertex="1" parent="1">
          <mxGeometry x="770" y="230" width="30" height="60" as="geometry" />
        </mxCell>
        <mxCell id="tGqfKUbqPckBpceEdP5W-17" value="&lt;b&gt;All Other APPS&lt;/b&gt;" style="text;html=1;strokeColor=none;fillColor=none;align=center;verticalAlign=middle;whiteSpace=wrap;rounded=0;" vertex="1" parent="1">
          <mxGeometry x="732.5" y="310" width="105" height="30" as="geometry" />
        </mxCell>
        <mxCell id="tGqfKUbqPckBpceEdP5W-18" value="&lt;b&gt;AIS Users&lt;/b&gt;" style="text;html=1;strokeColor=none;fillColor=none;align=center;verticalAlign=middle;whiteSpace=wrap;rounded=0;" vertex="1" parent="1">
          <mxGeometry x="745" y="100" width="60" height="30" as="geometry" />
        </mxCell>
        <mxCell id="tGqfKUbqPckBpceEdP5W-21" value="&lt;b&gt;&lt;font color=&quot;#ff0000&quot;&gt;Critical infrastructure&lt;/font&gt;&lt;/b&gt;" style="text;html=1;strokeColor=none;fillColor=none;align=center;verticalAlign=middle;whiteSpace=wrap;rounded=0;" vertex="1" parent="1">
          <mxGeometry x="285" y="70" width="130" height="30" as="geometry" />
        </mxCell>
        <mxCell id="tGqfKUbqPckBpceEdP5W-22" value="&lt;b&gt;Critical Sub&lt;/b&gt;" style="text;html=1;strokeColor=none;fillColor=none;align=center;verticalAlign=middle;whiteSpace=wrap;rounded=0;" vertex="1" parent="1">
          <mxGeometry x="50" y="90" width="140" height="30" as="geometry" />
        </mxCell>
        <mxCell id="tGqfKUbqPckBpceEdP5W-23" value="&lt;b&gt;Critical infrastructure&lt;/b&gt;" style="text;html=1;strokeColor=none;fillColor=none;align=center;verticalAlign=middle;whiteSpace=wrap;rounded=0;" vertex="1" parent="1">
          <mxGeometry x="480" y="70" width="130" height="30" as="geometry" />
        </mxCell>
        <mxCell id="tGqfKUbqPckBpceEdP5W-24" value="&lt;b&gt;Critical Sub&lt;/b&gt;" style="text;html=1;align=center;verticalAlign=middle;whiteSpace=wrap;rounded=0;" vertex="1" parent="1">
          <mxGeometry x="460" y="90" width="140" height="30" as="geometry" />
        </mxCell>
        <mxCell id="tGqfKUbqPckBpceEdP5W-25" value="" style="curved=1;endArrow=classic;html=1;rounded=0;entryX=1;entryY=1;entryDx=0;entryDy=0;exitX=0;exitY=0.3333333333333333;exitDx=0;exitDy=0;exitPerimeter=0;" edge="1" parent="1" source="tGqfKUbqPckBpceEdP5W-12" target="tGqfKUbqPckBpceEdP5W-21">
          <mxGeometry width="50" height="50" relative="1" as="geometry">
            <mxPoint x="850" y="174.28571428571433" as="sourcePoint" />
            <mxPoint x="430" y="-30" as="targetPoint" />
            <Array as="points">
              <mxPoint x="812.5" y="210" />
              <mxPoint x="762.5" y="160" />
            </Array>
          </mxGeometry>
        </mxCell>
        <mxCell id="tGqfKUbqPckBpceEdP5W-26" value="" style="curved=1;endArrow=classic;html=1;rounded=0;exitX=0;exitY=0.3333333333333333;exitDx=0;exitDy=0;exitPerimeter=0;entryX=1;entryY=0;entryDx=0;entryDy=0;" edge="1" parent="1" source="tGqfKUbqPckBpceEdP5W-11" target="tGqfKUbqPckBpceEdP5W-21">
          <mxGeometry width="50" height="50" relative="1" as="geometry">
            <mxPoint x="695" y="70" as="sourcePoint" />
            <mxPoint x="745" y="20" as="targetPoint" />
            <Array as="points">
              <mxPoint x="745" y="70" />
              <mxPoint x="695" y="20" />
            </Array>
          </mxGeometry>
        </mxCell>
        <mxCell id="tGqfKUbqPckBpceEdP5W-27" value="&lt;b&gt;&lt;font color=&quot;#3399ff&quot;&gt;Currently in Production&lt;/font&gt;&lt;/b&gt;" style="text;html=1;strokeColor=none;fillColor=none;align=center;verticalAlign=middle;whiteSpace=wrap;rounded=0;" vertex="1" parent="1">
          <mxGeometry x="625" y="40" width="120" height="30" as="geometry" />
        </mxCell>
        <mxCell id="tGqfKUbqPckBpceEdP5W-32" value="" style="curved=1;endArrow=classic;html=1;rounded=0;exitX=0;exitY=0.3333333333333333;exitDx=0;exitDy=0;exitPerimeter=0;entryX=1;entryY=0.5;entryDx=0;entryDy=0;" edge="1" parent="1" source="tGqfKUbqPckBpceEdP5W-12" target="tGqfKUbqPckBpceEdP5W-24">
          <mxGeometry width="50" height="50" relative="1" as="geometry">
            <mxPoint x="710" y="270" as="sourcePoint" />
            <mxPoint x="760" y="220" as="targetPoint" />
            <Array as="points">
              <mxPoint x="760" y="270" />
              <mxPoint x="710" y="220" />
            </Array>
          </mxGeometry>
        </mxCell>
      </root>
    </mxGraphModel>
  </diagram>
</mxfile>
